
<svg xmlns="http://www.w3.org/2000/svg" version="1.1" xmlns:xlink="http://www.w3.org/1999/xlink" preserveAspectRatio="none" x="0px" y="0px" width="350px" height="100px" viewBox="0 0 350 100">
<defs>
<linearGradient id="Gradient_1" gradientUnits="userSpaceOnUse" x1="10.4" y1="38.449999999999996" x2="10.4" y2="64.85" spreadMethod="pad">
<stop  offset="0%" stop-color="#FFE856"/>

<stop  offset="100%" stop-color="#FFFEC2"/>
</linearGradient>

<linearGradient id="Gradient_2" gradientUnits="userSpaceOnUse" x1="56.5" y1="15.762499999999996" x2="56.5" y2="88.3375" spreadMethod="pad">
<stop  offset="0%" stop-color="#FFD212"/>

<stop  offset="100%" stop-color="#FFF886"/>
</linearGradient>

<linearGradient id="Gradient_3" gradientUnits="userSpaceOnUse" x1="102.65" y1="38.449999999999996" x2="102.65" y2="64.85" spreadMethod="pad">
<stop  offset="0%" stop-color="#FFE856"/>

<stop  offset="100%" stop-color="#FFFEC2"/>
</linearGradient>

<g id="Layer0_0_FILL">
<path fill="url(#Gradient_1)" stroke="none" d="
M 14 39.95
Q 12.5 38.45 10.4 38.45 8.4 38.45 6.9 39.95 5.4 41.4 5.4 43.45
L 5.4 59.8
Q 5.4 61.85 6.9 63.35 8.4 64.85 10.4 64.85 12.5 64.85 14 63.35 15.4 61.9 15.4 59.8
L 15.4 43.45
Q 15.4 41.35 14 39.95 Z"/>

<path fill="url(#Gradient_2)" stroke="none" d="
M 82.25 77.75
Q 92.8 67.2 92.8 52.05 92.8 37.05 82.25 26.4 71.55 15.75 56.5 15.75 41.6 15.75 30.85 26.4 20.25 37.1 20.25 52.05 20.25 67.15 30.85 77.75 41.45 88.35 56.5 88.35 71.65 88.35 82.25 77.75
M 56.5 25.75
Q 67.5 25.75 75.15 33.5 82.8 41.1 82.8 52.05 82.8 63.05 75.15 70.7 67.5 78.35 56.5 78.35 45.55 78.35 37.95 70.7 30.25 63.1 30.25 52.05 30.25 41.05 37.95 33.5 45.55 25.75 56.5 25.75 Z"/>

<path fill="#FFFFFF" fill-opacity="0" stroke="none" d="
M 75.15 33.5
Q 67.5 25.75 56.5 25.75 45.55 25.75 37.95 33.5 30.25 41.05 30.25 52.05 30.25 63.1 37.95 70.7 45.55 78.35 56.5 78.35 67.5 78.35 75.15 70.7 82.8 63.05 82.8 52.05 82.8 41.1 75.15 33.5
M 69.8 47.75
Q 71.9 47.75 73.3 49.25 74.8 50.75 74.8 52.75 74.8 54.9 73.3 56.25 71.9 57.75 69.8 57.75 67.8 57.75 66.3 56.25 64.8 54.9 64.8 52.75 64.8 50.75 66.3 49.25 67.8 47.75 69.8 47.75
M 43.25 47.8
Q 45.25 47.8 46.75 49.25 48.25 50.75 48.25 52.8 48.25 54.9 46.75 56.3 45.25 57.8 43.25 57.8 41.2 57.8 39.7 56.3 38.25 54.9 38.25 52.8 38.25 50.7 39.7 49.25 41.25 47.8 43.25 47.8 Z"/>

<path fill="#FFE856" stroke="none" d="
M 46.75 49.25
Q 45.25 47.8 43.25 47.8 41.25 47.8 39.7 49.25 38.25 50.7 38.25 52.8 38.25 54.9 39.7 56.3 41.2 57.8 43.25 57.8 45.25 57.8 46.75 56.3 48.25 54.9 48.25 52.8 48.25 50.75 46.75 49.25
M 73.3 49.25
Q 71.9 47.75 69.8 47.75 67.8 47.75 66.3 49.25 64.8 50.75 64.8 52.75 64.8 54.9 66.3 56.25 67.8 57.75 69.8 57.75 71.9 57.75 73.3 56.25 74.8 54.9 74.8 52.75 74.8 50.75 73.3 49.25 Z"/>

<path fill="url(#Gradient_3)" stroke="none" d="
M 99.15 39.95
Q 97.65 41.4 97.65 43.45
L 97.65 59.8
Q 97.65 61.85 99.15 63.35 100.6 64.85 102.65 64.85 104.65 64.85 106.15 63.35 107.65 61.85 107.65 59.8
L 107.65 43.45
Q 107.65 41.4 106.15 39.95 104.65 38.45 102.65 38.45 100.6 38.45 99.15 39.95 Z"/>

<path fill="#FFFFFF" stroke="none" d="
M 126.3 36.5
L 137.4 36.5 137.4 65.5 144.05 65.5 144.05 36.5 155.1 36.5 155.1 30.5 126.3 30.5 126.3 36.5
M 172.9 44.2
Q 169.3 40.35 163.55 40.35 157.75 40.35 154.15 44.2 150.8 47.7 150.8 53.25 150.8 58.75 154.15 62.3 157.75 66.1 163.6 66.1 169.4 66.1 173 62.3 176.4 58.75 176.4 53.25 176.4 47.8 172.9 44.2
M 163.6 45.95
Q 166.5 45.95 168.5 48.2 170.3 50.4 170.3 53.25 170.3 56.25 168.6 58.25 166.75 60.5 163.6 60.5 160.4 60.5 158.6 58.25 156.85 56.2 156.85 53.25 156.85 50.25 158.6 48.2 160.4 45.95 163.6 45.95
M 186.6 30.55
L 180.5 30.55 180.5 65.5 186.6 65.5 186.6 54.35 196.25 65.5 203.6 65.5 203.6 65.1 192.1 52.5 202.15 41.25 202.15 40.85 194.85 40.85 186.6 50.75 186.6 30.55
M 228.1 43.95
Q 224.7 40.1 218.35 40.1 212.5 40.1 208.85 43.75 205.3 47.3 205.3 53 205.3 59 208.85 62.55 212.5 66.2 218.85 66.2 225.55 66.2 229.4 62.2
L 225.55 58.3
Q 224.45 59.4 222.55 60 220.7 60.6 218.9 60.6 215.7 60.6 213.8 59.2 211.9 57.75 211.6 55.35
L 230.85 55.35
Q 231.55 47.9 228.1 43.95
M 225 50.3
L 211.65 50.3
Q 213 45.5 218.6 45.5 224.3 45.5 225 50.3
M 247.75 46
Q 250.6 46 252.15 47.95 253.65 49.75 253.65 52.6
L 253.65 65.5 259.75 65.5 259.75 52.55
Q 259.75 46.9 256.75 43.6 253.85 40.5 249.35 40.5 244.95 40.5 241.25 44.2
L 240.85 40.8 235.35 40.8 235.35 65.5 241.4 65.5 241.4 52.95
Q 241.4 50.1 243.15 48.05 245.05 46 247.75 46
M 320.2 44.2
Q 316.5 40.35 310.75 40.35 308.1578125 40.35 306 41.15 303.412890625 42.10078125 301.45 44.2 298 47.75 298 53.25 298 58.7 301.45 62.3 303.365625 64.3796875 306 65.3 308.1791015625 66.1 310.85 66.1 316.65 66.1 320.25 62.3 323.7 58.7 323.7 53.25 323.7 47.85 320.2 44.2
M 310.85 45.95
Q 313.75 45.95 315.75 48.2 317.5 50.35 317.5 53.25 317.5 56.3 315.85 58.25 314 60.5 310.85 60.5 307.78125 60.5 306 58.4 305.923828125 58.3423828125 305.85 58.25 304.1 56.2 304.1 53.25 304.1 50.25 305.85 48.2 305.923828125 48.1078125 306 48 307.78125 45.95 310.85 45.95
M 289.35 47.45
Q 293.95 45.35 293.95 40.7 293.95 35.55 290.5 33 287.25 30.5 281.85 30.5
L 265.25 30.5 265.25 65.5 281.85 65.5
Q 295 65.5 295 55.25 295 53.2 293.75 51 292.15 48.3 289.35 47.45
M 286.2 38.05
Q 287.35 39.25 287.35 40.8 287.35 44.55 281.85 44.55
L 271.75 44.55 271.75 36.5 281.85 36.5
Q 284.65 36.5 286.2 38.05
M 271.75 59.35
L 271.75 50.35 281.85 50.35
Q 284.2 50.35 286.2 51.55 288.45 53.05 288.45 55.2 288.45 57.4 286.2 58.5 284.5 59.35 281.85 59.35
L 271.75 59.35
M 325.25 40.95
L 325.25 46.2 329.85 46.2 329.85 56.8
Q 329.85 61.35 332.25 63.75 334.75 66 338.75 65.85 341.45 65.7 343.75 64.75
L 342.1 59.55
Q 340.6 60.3 339.1 60.3 335.95 60.3 335.95 56.8
L 335.95 46.2 342.75 46.2 342.75 40.95 336 40.95 336 33.95 329.85 34.55 329.85 40.95 325.25 40.95 Z"/>
</g>
</defs>

<g transform="matrix( 1, 0, 0, 1, 0,0) ">
<use xlink:href="#Layer0_0_FILL"/>
</g>
</svg>
